<svg xmlns="http://www.w3.org/2000/svg" viewBox="0 0 500 500" width="100%" height="100%">
  <defs>
    <!-- التدرج اللوني الذهبي الفخم -->
    <linearGradient id="goldGradient" x1="0%" y1="0%" x2="100%" y2="100%">
      <stop offset="0%" stop-color="#F9F295" />
      <stop offset="30%" stop-color="#E0AA3E" />
      <stop offset="60%" stop-color="#d4af37" />
      <stop offset="100%" stop-color="#8a7322" />
    </linearGradient>

    <!-- تأثير الظل لإعطاء عمق للرموز والحروف -->
    <filter id="elementDepth" x="-20%" y="-20%" width="140%" height="140%">
      <feDropShadow dx="0" dy="5" stdDeviation="8" flood-color="#000000" flood-opacity="0.2" />
    </filter>
  </defs>

  <!-- الحروف المركزية JS -->
  <g filter="url(#elementDepth)">
    <text 
      x="250" 
      y="240" 
      font-family="Georgia, 'Times New Roman', serif" 
      font-size="220" 
      font-weight="900" 
      font-style="italic" 
      letter-spacing="-10" 
      text-anchor="middle" 
      fill="url(#goldGradient)">
      JS
    </text>
  </g>

  <!-- الخط المنحني المائل الوسطي -->
  <path d="M 100 280 Q 250 340 400 280" stroke="url(#goldGradient)" stroke-width="8" stroke-linecap="round" fill="none" opacity="0.8" />

  <!-- مجموعة الأيقونات تحت الخط المنحني -->
  
  <!-- أيقونة التجميل (يسار) -->
  <g transform="translate(130, 340) scale(1.1)" filter="url(#elementDepth)">
    <circle cx="25" cy="20" r="15" fill="none" stroke="url(#goldGradient)" stroke-width="3"/>
    <path d="M25 35 L25 45 M17 45 L33 45" fill="none" stroke="url(#goldGradient)" stroke-width="3" stroke-linecap="round"/>
  </g>

  <!-- أيقونة حقيبة التسوق (منتصف) -->
  <g transform="translate(225, 335) scale(1.1)" filter="url(#elementDepth)">
    <path d="M10 18 H40 L43 45 H7 L10 18 Z" fill="none" stroke="url(#goldGradient)" stroke-width="3" stroke-linejoin="round"/>
    <path d="M18 18 C18 10, 32 10, 32 18" fill="none" stroke="url(#goldGradient)" stroke-width="3"/>
  </g>

  <!-- أيقونة منتجات الأطفال (يمين) -->
  <g transform="translate(320, 340) scale(1.1)" filter="url(#elementDepth)">
    <circle cx="25" cy="15" r="12" fill="none" stroke="url(#goldGradient)" stroke-width="3"/>
    <path d="M15 25 Q25 40 35 25" fill="none" stroke="url(#goldGradient)" stroke-width="3" stroke-linecap="round"/>
    <rect x="20" y="27" width="10" height="6" rx="2" fill="url(#goldGradient)"/>
  </g>

</svg>
